<svg width="102" height="175" viewBox="0 0 102 175" fill="none" xmlns="http://www.w3.org/2000/svg">
<path fill-rule="evenodd" clip-rule="evenodd" d="M63.3222 24.018C63.1276 24.7958 63.4836 25.6398 64.3921 26.5479C65.3006 27.4561 66.176 27.9422 67.0184 28.0064C67.8607 28.0706 68.4774 27.7789 68.8665 27.1313C69.061 26.2232 69.2225 25.5426 69.3528 25.0895C69.7419 24.2455 70.0668 23.631 70.3255 23.2421C70.5843 22.5284 70.6815 21.8478 70.6173 21.2002C69.773 20.6149 68.4774 20.3893 66.7266 20.5177C64.6508 20.5838 63.5167 21.7506 63.3222 24.018ZM60.015 22.9504C61.118 19.3217 63.0634 17.5055 65.8512 17.5055L86.9585 17.6999C87.6725 17.6999 88.0927 17.6999 88.223 17.6999C88.7425 17.8963 89.0343 18.2211 89.0985 18.6722C89.293 19.9051 88.6452 20.6169 87.1531 20.8133C86.5053 20.8774 84.5599 20.9105 81.3169 20.9105V20.6188H79.177C78.9825 20.7491 78.074 20.7491 76.4535 20.6188C75.4166 20.6188 74.6365 21.0077 74.119 21.7875C72.4985 24.1852 71.4928 26.4877 71.1037 28.6909C71.0395 29.2743 71.201 29.7605 71.59 30.1494L72.9518 30.9272C73.2105 31.1217 75.3835 31.9637 79.4688 33.4552C80.3773 33.5836 80.8306 34.0697 80.8306 34.9137C80.7664 35.886 80.1497 36.4694 78.9825 36.6619C78.2043 36.7261 77.362 36.5647 76.4535 36.1758C69.3198 33.1947 64.5867 30.9272 62.2522 29.3696C59.8535 27.8119 59.1065 25.6729 60.015 22.9504ZM87.0558 24.895C87.0558 25.1556 86.9274 25.4453 86.6667 25.7701C86.4722 25.9646 86.2446 26.0287 85.9858 25.9646C85.0132 25.7701 83.4899 25.5134 81.4142 25.1887C79.533 24.7997 77.9456 23.9558 76.648 22.6606C78.3347 22.4001 80.0524 22.4001 81.8033 22.6606C83.8771 23.1118 85.4022 23.4366 86.3749 23.633C86.8282 23.6952 87.0558 24.1172 87.0558 24.895ZM76.8426 26.4488L82.6787 27.7128C84.1708 28.0375 84.8517 28.6209 84.7214 29.4629C84.4626 30.3711 83.4238 30.758 81.6087 30.6297C79.3385 30.3049 77.4262 29.7216 75.8699 28.8795C75.0275 28.3603 74.6696 27.81 74.7999 27.2266C74.9944 26.3846 75.6753 26.126 76.8426 26.4488ZM53.9843 48.2304C54.2431 44.7943 53.1089 42.1068 50.5799 40.1622C48.44 38.4762 45.5881 37.5681 42.0202 37.4398C38.8434 37.3114 36.151 38.4451 33.9469 40.8428C31.807 43.1764 30.737 46.0291 30.737 49.3992C30.4783 53.0278 31.5482 56.042 33.9469 58.4397C36.2172 60.5807 38.8434 61.518 41.8257 61.2594C46.1055 60.8705 49.1539 59.7037 50.969 57.7591C52.7198 55.8786 53.7236 52.7011 53.9843 48.2304ZM54.3734 58.4397C52.1693 62.0042 48.8933 64.0791 44.5492 64.6625C40.6585 65.2459 37.0595 64.4038 33.7524 62.1345C30.381 59.8009 28.4356 56.7868 27.9162 53.092V49.8853C27.7217 43.6625 30.2837 39.0266 35.6005 35.9813C38.0653 34.4898 40.9833 33.9725 44.3547 34.4256C47.5976 34.8145 50.4184 35.9813 52.8171 37.9259C55.1516 39.8705 56.4491 42.9489 56.7079 47.1629C56.9666 51.5674 56.1884 55.3283 54.3734 58.4397ZM56.3188 67.1905C64.2307 64.4038 70.131 62.2317 74.0218 60.676C80.8948 58.0838 86.6667 55.4897 91.3356 52.8975C93.6701 51.6005 95.4851 50.986 96.7827 51.0501C98.0803 51.2446 99.2475 52.0866 100.284 53.5782C101.646 55.5869 102.197 57.7921 101.938 60.1899C101.808 62.5234 100.965 64.435 99.409 65.9265C97.5278 67.7408 95.0961 69.3626 92.1138 70.788C91.3998 71.175 88.7736 72.2796 84.235 74.0919C72.5627 78.4343 64.5225 81.6448 60.1123 83.7178L57.8751 83.9142C58.0054 82.6171 58.4587 81.6448 59.2369 80.9973C59.6901 80.6084 60.5656 80.1533 61.8631 79.6361C64.7812 78.5335 73.6969 75.0643 88.6121 69.2304C91.3356 68.0636 93.6701 66.7666 95.6155 65.3412C97.1718 64.3047 98.2087 62.8462 98.7281 60.9658C99.2475 59.0853 98.7942 57.2399 97.3663 55.4236C96.6524 54.6457 95.81 54.3229 94.8373 54.4513C94.3179 54.5796 93.5086 54.9374 92.4056 55.5208C87.867 57.8544 82.3869 60.254 75.9671 62.7159C72.2709 64.1413 66.6935 66.2162 59.2369 68.9387C58.7836 69.1332 58.1338 69.3918 57.2915 69.7146C56.7721 69.8449 55.9939 70.0724 54.957 70.3972C53.9201 70.6558 53.2704 70.333 53.0116 69.4249C52.6226 68.2561 52.9144 67.5775 53.8871 67.383C55.1185 67.3849 55.9297 67.3208 56.3188 67.1905ZM56.027 85.8588C55.9628 86.378 55.8324 87.187 55.6379 88.2896C55.7021 89.5206 55.7682 92.7622 55.8324 98.0127C55.8966 102.03 56.0912 105.27 56.4161 107.736C57.5191 119.662 58.1027 129.352 58.1669 136.806L58.556 152.462C58.4276 154.926 57.6806 156.674 56.3188 157.711C53.5953 159.785 52.0059 160.952 51.5526 161.213C48.5061 162.444 45.2963 164.227 41.923 166.561C40.5612 167.597 37.6101 169.833 33.0715 173.268C29.7643 175.99 26.9435 175.504 24.6091 171.809C23.5702 170.253 23.0528 168.698 23.0528 167.144C22.9244 165.588 23.3776 163.319 24.4145 160.338C19.3565 158.197 14.1682 154.146 8.85148 148.184L5.93341 144.197C4.18257 141.8 4.47438 139.855 6.80883 138.364C9.14329 136.223 10.9914 134.733 12.3532 133.889C15.4658 131.686 17.6699 132.333 18.9675 135.834C19.9402 138.428 21.8213 141.02 24.6091 143.612C27.5913 141.409 29.634 138.815 30.737 135.834C31.6455 133.113 31.8712 129.838 31.4179 126.013C30.6397 120.244 30.1865 116.323 30.0561 114.248C29.7313 109.776 29.9258 105.756 30.6398 102.192C30.7701 101.416 30.8343 100.377 30.8343 99.0803C30.7701 97.5888 30.737 96.3889 30.737 95.4808L16.633 100.539C15.0125 101.058 13.9737 101.35 13.5204 101.414C11.3805 101.801 9.7911 101.704 8.75422 101.122C7.78152 100.475 6.87498 99.1445 6.03068 97.1357C5.25253 95.1911 4.57164 92.7272 3.98803 89.7461C3.46861 86.5044 3.04841 84.0737 2.72353 82.4538C2.20412 79.2763 1.75084 77.3317 1.36176 76.6199C0.453272 75.1265 0 73.3452 0 71.2722C0.258736 68.8065 0.453272 66.9941 0.583613 65.8254C0.908491 63.1048 1.97845 61.3216 3.79349 60.4777C4.83038 59.9584 5.60853 59.2156 6.12795 58.2433C6.45283 57.7902 6.84191 56.7848 7.29518 55.2291C7.62006 54.2568 8.30094 51.6627 9.33783 47.4507C10.0518 44.209 10.8299 41.6168 11.6723 39.6722C12.3862 37.9862 12.7111 36.4636 12.645 35.1004C12.5166 33.6089 11.931 32.0551 10.8941 30.4352C7.45665 24.9242 7.8146 18.2464 11.9641 10.4037C14.2344 6.06332 17.1524 2.91693 20.7183 0.97231C21.5607 0.453096 22.0159 0.194463 22.0801 0.194463C22.5333 0.0661178 22.9555 0.324751 23.3446 0.97231C23.864 2.26937 23.6033 3.20862 22.5664 3.79201L21.4965 3.98647C17.6699 5.93109 14.8491 9.07554 13.0341 13.4198C11.219 17.8924 10.9914 22.1064 12.3532 26.0598C12.8726 27.7439 13.4873 28.8134 14.2013 29.2665C14.7849 29.6554 16.0163 29.7527 17.8975 29.5582C20.4907 29.3618 22.761 28.2942 24.7063 26.3496C25.0954 25.9607 26.6186 23.983 29.278 20.4185C30.7039 18.4739 31.5794 15.9148 31.9042 12.7373C32.2291 9.62587 32.1319 7.55096 31.6124 6.51447C31.0288 5.41382 29.3422 4.1187 26.5544 2.62524C25.5818 2.17409 25.1596 1.68793 25.29 1.16677C25.3561 0.390869 26.035 0 27.3326 0C28.8889 0.0641724 30.3479 0.680617 31.7097 1.84739C33.0715 3.07833 33.9138 4.43957 34.2387 5.93109C35.2114 11.5063 34.1745 16.9512 31.1261 22.2659C28.0796 27.5164 23.7978 31.0808 18.2866 32.9613C17.0552 33.3502 16.1797 34.1592 15.6603 35.3921C14.3627 38.6338 13.4231 41.5157 12.8395 44.0456C12.4504 45.6013 11.931 47.8357 11.2832 50.7526C10.5693 53.3467 9.7911 55.6142 8.94875 57.5588C11.1529 57.4946 12.7422 58.0449 13.7149 59.2137C14.4289 60.186 14.8822 61.7728 15.0767 63.978C15.0767 64.4972 15.2382 65.8584 15.563 68.0617C15.6934 69.6174 15.7245 70.9455 15.6603 72.0481C15.5961 73.9928 16.1467 76.6199 17.3139 79.9239C17.7672 81.8043 18.8702 82.3216 20.621 81.4815L26.6517 79.0507L41.8257 70.7861C42.9287 70.2649 43.6096 69.9752 43.8683 69.911C44.0629 69.911 44.9694 69.5863 46.5919 68.9387C47.6288 68.4856 48.3427 68.647 48.7318 69.4249C49.0567 70.3972 48.7318 71.0778 47.7591 71.4667C47.1755 71.6612 46.267 71.9529 45.0356 72.3418L20.621 85.1763C19.1289 85.89 18.092 86.1486 17.5084 85.9541C16.9248 85.7577 16.3081 84.9176 15.6603 83.4261C13.6507 79.0838 12.7422 74.7084 12.9368 70.2999C13.001 68.8065 12.7422 66.4749 12.1586 63.2974C11.6392 61.2244 10.2794 60.608 8.07333 61.45C6.32249 62.1636 5.12219 62.9434 4.47438 63.7835C3.76042 64.6917 3.46862 65.8895 3.59896 67.383C4.31291 75.5485 5.80307 84.0406 8.07333 92.8575C8.91568 95.7103 9.88837 97.3943 10.9914 97.9135C12.2228 98.4347 14.1682 98.0769 16.8275 96.844C16.9559 96.7156 19.5842 95.8717 24.7063 94.316C27.819 93.3437 30.0561 91.8852 31.4179 89.9406C32.3906 90.3937 32.9411 91.0412 33.0715 91.8852C33.1376 92.3383 33.1376 93.0189 33.0715 93.9271C33.1376 95.5469 33.0715 99.5665 32.8769 105.984C32.6824 110.845 32.7797 114.799 33.1687 117.846C33.3633 118.818 33.5909 121.088 33.8496 124.652C34.1084 127.441 34.369 129.644 34.6278 131.264C35.0811 134.7 34.336 137.551 32.3906 139.82C31.9373 140.271 31.3848 140.987 30.737 141.959C27.6886 145.784 25.679 147.665 24.7063 147.599C23.7978 147.534 21.8855 145.619 18.9675 141.862L17.8002 140.015C17.2808 138.914 16.8606 138.07 16.5357 137.487C16.0163 136.578 15.3043 136.223 14.3958 136.417C13.0341 136.611 11.3805 137.909 9.4351 140.306C8.78729 141.148 8.94875 142.284 9.92144 143.709C14.0709 149.413 19.162 153.333 25.1927 155.474C27.1381 156.316 29.1165 155.927 31.1261 154.306C33.3302 152.621 35.3748 150.319 37.254 147.402L43.6738 137.389L43.5765 137.679L44.9383 135.445C45.4577 134.667 46.1055 134.537 46.8837 135.056C47.8564 135.575 48.1151 136.318 47.6618 137.29C47.4031 137.811 46.8837 138.554 46.1055 139.526L44.3547 142.249C43.8353 143.221 43.6738 143.933 43.8683 144.388C43.9325 145.036 44.6465 145.327 46.0083 145.263C46.8506 145.067 47.337 145.458 47.4673 146.43C47.5315 147.208 47.1094 147.694 46.2028 147.888C43.3509 148.536 40.2694 150.352 36.9622 153.333C32.8127 157.094 30.0561 159.363 28.6944 160.139C27.7217 160.725 27.0077 161.825 26.5544 163.445C26.1654 164.937 26.0681 166.426 26.2626 167.918C26.5214 169.604 27.1711 170.64 28.208 171.031C29.2469 171.29 30.5425 170.901 32.0988 169.862C37.1568 166.037 43.0902 162.376 49.899 158.877C53.0758 157.322 54.7956 154.792 55.0543 151.293C56.027 138.395 55.6379 125.268 53.8871 111.915C53.498 108.934 53.2392 105.239 53.1089 100.83C52.9786 95.9689 52.8813 92.2761 52.8171 89.7481C52.6226 89.2269 52.6226 88.6766 52.8171 88.0932C52.9455 86.9264 53.0758 86.0844 53.2062 85.5652C53.5311 84.5929 54.0505 84.1398 54.7625 84.204C55.7994 84.4004 56.2215 84.9507 56.027 85.8588ZM83.8459 66.4126C83.3265 66.4768 82.9374 66.3485 82.6787 66.0237C82.3538 65.699 82.1923 65.31 82.1923 64.855C82.2585 63.9469 82.9063 63.4957 84.1377 63.4957C85.1104 63.6902 85.6298 64.0791 85.694 64.6625C85.4353 65.6348 84.8186 66.2182 83.8459 66.4126ZM92.5029 59.6065C93.1507 59.5423 93.637 59.9623 93.9619 60.8685C93.9619 61.905 93.4425 62.5234 92.4056 62.7159C91.5632 62.7159 91.0438 62.2628 90.8493 61.3547C90.7851 60.4485 91.3356 59.8651 92.5029 59.6065ZM20.621 8.46104C21.5937 8.13823 22.2746 8.49604 22.6637 9.53252C22.5333 10.4407 21.9828 10.991 21.0101 11.1855C20.1016 11.3138 19.518 10.991 19.2593 10.2131C18.8702 9.17666 19.3235 8.59327 20.621 8.46104ZM17.0221 23.1449C17.6699 23.0807 17.9948 23.5668 17.9948 24.6033C17.8664 25.7701 17.38 26.3846 16.5357 26.4488C15.7576 26.4488 15.4347 25.9626 15.563 24.9903C15.6934 23.7613 16.1797 23.1449 17.0221 23.1449ZM15.7576 17.9916C15.6292 17.6669 15.563 17.3771 15.563 17.1165C15.7576 15.8856 16.633 15.1719 18.1893 14.9775L18.9675 16.1442C18.448 17.8302 17.5746 18.575 16.3412 18.3805C16.2109 18.3805 16.0163 18.2503 15.7576 17.9916ZM40.5612 40.2575C40.9503 39.7383 41.5981 39.4797 42.5066 39.4797C45.6834 39.9328 47.0782 42.3966 46.6891 46.8692C45.7165 46.6106 44.6465 45.6713 43.4793 44.0515C42.4424 42.6261 41.4055 41.8151 40.3667 41.6207C40.1079 41.5565 40.0107 41.3601 40.0748 41.0354C40.139 40.7106 40.3005 40.452 40.5612 40.2575ZM48.9263 92.1788C48.6015 93.6023 48.6676 95.2572 49.1209 97.1376C48.7318 98.2383 48.6345 99.5684 48.8291 101.124C48.8291 101.252 48.9594 102.55 49.2181 105.013C49.4769 106.18 48.9905 106.763 47.7591 106.763C46.981 106.763 46.4946 106.342 46.3001 105.499C46.0413 103.619 45.9421 101.352 46.0083 98.6933C46.0725 95.7122 46.1055 93.4428 46.1055 91.8872C45.9752 90.8507 46.5588 90.4287 47.8564 90.6232C48.6987 90.6873 49.0547 91.2065 48.9263 92.1788ZM49.8018 112.889C51.0993 113.085 51.6829 114.023 51.5526 115.709C51.3581 116.809 50.8075 117.362 49.899 117.362C48.5373 116.911 47.9867 115.967 48.2455 114.544C48.3738 113.181 48.8933 112.63 49.8018 112.889ZM43.2847 137.292C42.7653 137.422 42.0202 137.617 41.0475 137.877C40.2694 137.942 39.75 137.424 39.4912 136.32C39.3609 135.153 39.6858 134.572 40.4639 134.572C42.7342 134.441 43.7711 135.382 43.5765 137.391L43.2847 137.292ZM32.4879 143.612C32.4237 142.445 33.1045 141.864 34.5305 141.864C35.6335 141.992 36.0868 142.478 35.8923 143.322C35.7619 144.359 35.1141 144.878 33.9469 144.878C32.9742 144.748 32.4879 144.328 32.4879 143.612Z" fill="white"/>
</svg>
