<svg width="154" height="164" viewBox="0 0 154 164" fill="none" xmlns="http://www.w3.org/2000/svg">
<path fill-rule="evenodd" clip-rule="evenodd" d="M123.576 35.1983C123.456 38.1781 124.519 41.1214 126.767 44.0373C129.014 46.957 131.598 48.7175 134.515 49.3225C139.924 50.2338 144.026 48.8997 146.821 45.3149C150.467 40.6384 151.074 35.8362 148.644 30.9173C147.428 28.1836 145.423 26.3939 142.628 25.5428C141.229 25.0543 140.409 24.7208 140.167 24.5386C139.375 24.0538 139.042 23.2647 139.162 22.1675C143.842 21.9251 147.671 23.5982 150.65 27.1794C153.687 30.6421 154.659 34.6552 153.567 39.2114C152.473 43.4614 150.134 47.3196 146.548 50.7842C144.3 52.9092 141.29 54.0027 137.523 54.0628C133.755 54.1266 130.413 53.1516 127.496 51.1468C123.303 48.2309 120.931 43.9171 120.386 38.2072C119.718 32.4372 121.086 27.6988 124.488 23.99C125.764 22.594 127.436 21.5625 129.501 20.8936C132.116 20.4088 134.09 19.9824 135.426 19.6197C136.763 19.4338 137.554 19.8621 137.797 20.8936C138.101 22.0473 137.494 22.9585 135.973 23.6273C135.731 23.8096 135.335 23.8697 134.79 23.8096C131.448 24.1759 128.774 25.3587 126.768 27.3653C124.761 29.4903 123.698 32.1019 123.576 35.1983ZM130.413 30.735C130.413 29.7636 130.808 29.2479 131.598 29.1859C132.934 28.8196 133.603 29.3062 133.603 30.6421C133.603 31.5533 133.056 32.0089 131.964 32.0089C131.051 32.1912 130.535 31.7684 130.413 30.735ZM138.799 28.9125C140.865 28.9125 142.808 30.1591 144.631 32.6468C146.455 35.078 147.095 37.296 146.548 39.2989C146.183 40.3924 145.667 40.879 144.996 40.7587C143.66 40.7587 143.082 40.3031 143.264 39.3918C143.629 37.5092 143.264 35.9291 142.17 34.6534C141.379 33.7421 139.982 32.86 137.977 32.0089C137.065 31.7666 136.73 31.1578 136.974 30.1865C137.279 29.3372 137.888 28.9125 138.799 28.9125ZM88.8454 17.7954C86.8399 18.5864 85.746 19.4047 85.5637 20.2558C85.3796 20.9246 85.9283 22.2313 87.2027 24.1741C89.9374 28.4241 91.9447 32.0399 93.2209 35.016C95.044 39.2096 96.0467 43.25 96.2272 47.1356C96.3494 53.5744 97.5034 59.2241 99.6912 64.0828C100.785 66.514 100.845 69.43 99.8735 72.8326C94.5262 89.3552 89.9684 101.537 86.2 109.375C81.5218 119.519 79.85 131.059 81.1864 144.002C81.4908 147.159 83.314 150.866 86.6558 155.12C88.7834 157.793 90.5755 159.28 92.034 159.583C93.5527 159.949 95.7714 159.373 98.6885 157.853C100.512 156.882 100.935 155.635 99.9628 154.115L94.6776 146.096C88.7834 137.593 87.8408 127.662 91.8517 116.299C92.3986 114.356 93.735 113.049 95.8608 112.38C97.5016 111.836 99.0203 112.018 100.419 112.929C101.879 113.84 102.606 115.178 102.606 116.937C102.729 122.162 103.184 126.082 103.974 128.694C107.742 140.357 114.882 147.797 125.396 151.019C127.705 151.748 129.406 151.595 130.5 150.563C132.263 149.104 133.144 147.374 133.144 145.369C133.144 144.338 132.688 143.576 131.777 143.091L129.226 142.362C122.661 140.237 117.496 136.379 113.729 130.789C110.326 125.564 108.623 119.701 108.623 113.202C108.623 110.589 109.111 107.824 110.083 104.908C110.75 103.146 111.937 100.598 113.636 97.2557C115.339 93.6709 116.615 90.9973 117.467 89.2368C119.046 86.0182 120.262 83.2535 121.113 80.9426C122.511 77.4836 124.668 76.966 127.585 79.3935C129.773 81.0957 131.2 83.2207 131.87 85.7722C133.206 90.5107 133.45 95.6464 132.599 101.174L131.87 105.275C131.202 109.464 131.293 112.109 132.143 113.202C132.994 114.174 135.485 114.783 139.618 115.025C140.714 115.025 141.501 115.114 141.99 115.298C142.779 115.481 143.173 115.903 143.173 116.572C143.173 117.666 142.717 118.212 141.806 118.212C136.701 118.212 132.903 118.119 130.411 117.939C129.195 117.939 128.437 116.935 128.132 114.932C127.767 110.682 128.012 106.488 128.861 102.357C129.713 98.3492 129.833 93.9734 129.226 89.2368C128.801 85.6519 127.19 83.1004 124.395 81.5841C118.438 94.4017 114.854 102.483 113.638 105.821C111.392 111.535 111.512 117.485 114.003 123.684C116.798 130.547 121.935 135.47 129.408 138.446L131.14 138.994C134.482 140.148 136.396 141.301 136.881 142.453C137.37 143.611 136.914 145.916 135.514 149.381C134.36 152.357 133.175 154.15 131.961 154.755C130.745 155.424 128.586 155.364 125.487 154.573C113.15 151.537 105.13 144.004 101.423 131.974C100.023 127.358 99.2354 123.47 99.0513 120.314C99.0513 119.217 98.9911 118.431 98.8689 117.943C98.5043 116.609 97.9574 115.847 97.2281 115.665C96.3166 115.604 95.5891 116.18 95.0422 117.394C92.9747 122.439 92.2473 127.328 92.8544 132.067C93.219 135.832 94.5554 139.599 96.8653 143.365C98.4442 145.856 100.907 148.985 104.249 152.75C105.403 154.088 106.012 155.089 106.072 155.757C106.072 156.486 105.465 157.307 104.249 158.218C103.702 158.644 100.814 160.436 95.5891 163.596C94.982 164.019 94.3129 164.112 93.5819 163.866C93.4615 163.866 92.7924 163.623 91.5764 163.14C87.2009 161.438 83.7369 158.551 81.1845 154.483C78.6941 150.472 77.3559 145.706 77.1736 140.173C76.8108 128.207 79.2702 116.605 84.5592 105.364C88.8125 96.7399 92.7304 86.0784 96.3166 73.3811C97.3503 69.6159 96.9255 66.607 95.0422 64.358C93.642 62.5957 93.0659 60.3504 93.3102 57.6167C93.797 47.0444 91.1224 37.1739 85.2884 28.0013C84.561 26.8477 83.8007 26.239 83.0095 26.1788C81.066 32.0691 77.7844 36.4759 73.1664 39.3918C68.4864 42.3078 63.2303 43.25 57.3963 42.2149C55.1484 41.792 53.2942 41.0339 51.8357 39.9367C47.2779 35.9291 44.2989 31.9215 42.9024 27.9084C41.2634 23.2319 41.5952 18.1909 43.9051 12.7836C46.6999 6.15884 51.7464 1.96895 59.0389 0.208434C59.7062 -0.0339559 60.4974 -0.0649375 61.409 0.115488C62.625 0.297737 63.2011 0.966588 63.141 2.12022C63.0808 2.97132 62.532 3.39778 61.5001 3.39778C57.3671 3.45792 53.5695 5.40251 50.1056 9.22791C46.339 13.6019 45.0919 18.7959 46.3681 24.812C47.6443 30.7642 50.8658 34.9559 56.0308 37.3871C59.4947 39.0893 63.8994 38.8433 69.2485 36.6581C75.0223 34.3472 78.3332 30.7952 79.1846 25.9966C80.036 20.8918 79.6713 16.824 78.0889 13.7841C76.3879 10.6877 73.1974 8.13442 68.5174 6.13151C67.79 5.88912 67.243 5.67588 66.8784 5.49364C66.3916 5.12732 66.058 4.61155 65.8757 3.94088C66.7872 2.48472 68.3661 2.21134 70.6158 3.12259C75.8428 5.00521 79.1244 7.67879 80.4607 11.1415C80.8235 12.1129 81.5546 13.5089 82.6467 15.3314C83.1954 17.0937 84.2583 17.3999 85.8372 16.2426L87.8445 14.9687C89.972 13.2665 91.3686 12.4173 92.0377 12.4173C92.7067 12.4173 94.1033 13.2082 96.2309 14.7883C99.3904 17.2796 101.884 20.469 103.708 24.3563C105.106 27.2723 106.349 31.1578 107.445 36.0202C108.296 39.5449 108.721 42.7343 108.721 45.5883C108.781 49.1731 110.575 51.4512 114.098 52.4226C117.624 53.5161 119.751 54.092 120.479 54.1521C128.26 55.3659 134.185 59.9221 138.254 67.8208C144.212 79.2441 147.31 91.9687 147.554 106C147.736 109.831 146.095 112.714 142.631 114.657C145.306 101.234 143.178 87.017 136.251 72.0143C132.847 64.5385 127.955 60.2283 121.574 59.071C120.663 58.8888 117.381 57.9174 111.729 56.155C109.299 55.4898 107.658 54.6387 106.807 53.6035C105.895 52.5101 105.409 50.6876 105.348 48.1361C104.924 40.0589 103.283 32.9512 100.426 26.8149C99.0914 23.8388 97.0841 21.105 94.4096 18.6137C92.7651 17.0354 90.911 16.7639 88.8454 17.7954ZM90.8508 22.5339C90.9729 21.2563 91.642 20.6786 92.8581 20.8007C93.8298 20.9246 94.3166 21.4422 94.3166 22.3534C94.2564 22.9585 94.1033 23.4469 93.8608 23.8096C93.5563 24.0556 93.2847 24.1158 93.0404 23.9918C91.3977 23.9299 90.6685 23.4451 90.8508 22.5339ZM96.0467 32.3753C94.8909 32.255 94.3439 31.6463 94.4059 30.5528C94.59 29.5213 95.1352 29 96.0467 29C97.2628 28.8178 97.93 29.3663 98.0522 30.6403C98.0522 31.7994 97.3849 32.3753 96.0467 32.3753ZM119.474 80.2155L114.825 89.9657C114.278 91.0592 113.458 91.4857 112.364 91.2397C111.512 91.0574 111.179 90.2683 111.359 88.8723C111.784 87.2922 112.606 85.3767 113.822 83.1314C115.401 80.2774 116.373 78.4221 116.739 77.571C117.164 76.842 117.864 76.6306 118.836 76.9332C119.018 77.0535 119.323 77.5419 119.747 78.393L119.474 80.2155ZM137.158 90.148C136.004 89.7252 135.487 89.0545 135.609 88.1433C136.032 86.9896 136.763 86.5632 137.795 86.8657C138.766 87.1117 139.102 87.6876 138.799 88.5989C138.677 89.1438 138.464 89.5393 138.159 89.7835C137.919 89.9056 137.583 90.0259 137.158 90.148ZM138.435 95.2509C139.589 95.4332 140.167 96.102 140.167 97.2557C139.982 98.2872 139.437 98.7118 138.526 98.5296C137.25 98.3473 136.672 97.7113 136.794 96.6178C136.854 95.7066 137.401 95.2509 138.435 95.2509ZM137.523 108.191C136.489 108.191 135.942 107.764 135.882 106.913C135.882 105.82 136.307 105.244 137.158 105.183C138.252 105.063 138.861 105.61 138.982 106.824C138.982 107.857 138.495 108.313 137.523 108.191ZM137.797 113.658C136.703 113.476 136.096 113.049 135.973 112.38C135.853 111.227 136.462 110.651 137.797 110.651C138.768 110.651 139.164 111.107 138.982 112.018C138.982 113.049 138.586 113.598 137.797 113.658ZM108.444 95.6154C109.538 95.9781 110.085 96.4337 110.085 96.9823C110.085 98.0758 109.596 98.5314 108.625 98.3492C107.531 98.3492 106.986 97.8935 106.986 96.9823C106.863 96.2515 107.35 95.7959 108.444 95.6154ZM85.4725 131.154C84.6211 131.154 84.1964 130.669 84.1964 129.694C84.6211 128.54 85.3194 128.118 86.2911 128.42C87.1425 128.663 87.447 129.238 87.2027 130.15C86.9621 131.001 86.3841 131.334 85.4725 131.154ZM86.2018 145.369C86.0195 144.032 86.5063 143.361 87.6603 143.361C88.5719 143.361 89.1206 143.816 89.3011 144.728C89.4816 145.639 88.9365 146.248 87.6603 146.55C86.6868 146.432 86.2018 146.036 86.2018 145.369ZM90.8508 153.479C90.8508 152.326 91.3667 151.657 92.4023 151.475C93.6183 151.232 94.2856 151.748 94.4077 153.024C94.5299 153.995 94.0121 154.664 92.8581 155.028C91.7624 155.089 91.0933 154.571 90.8508 153.479ZM0.0586846 52.1492C0.118848 50.1445 1.67034 48.8068 4.70768 48.1379C6.28834 47.7753 8.65841 47.4126 11.8179 47.0444C14.4323 46.7419 17.6829 46.4995 21.5717 46.3154C28.0748 46.0731 31.3874 45.9528 31.5078 45.9528C34.4266 45.7705 38.0109 45.8325 42.2643 46.135C47.0044 46.5615 50.5887 46.864 53.0189 47.0463C54.7819 47.2285 56.1183 48.4459 57.0298 50.6912C57.9414 52.88 57.7299 54.5822 56.3917 55.796C55.2359 56.8895 54.3845 58.2873 53.8393 59.9859C53.5349 60.8971 53.2012 62.3569 52.8366 64.3599L46.3645 93.5196C46.1803 94.8573 45.9689 95.7977 45.7246 96.3463C45.0573 98.0485 43.9616 98.7137 42.4429 98.351C40.9844 97.8662 40.6508 96.7417 41.4402 94.9794C43.2032 91.092 44.3882 86.6251 44.9953 81.5841C41.8358 84.1976 38.1895 88.6007 34.0565 94.7971C32.598 94.491 32.2644 93.5506 33.0538 91.9705C36.5779 85.6519 40.2242 80.9426 43.9926 77.8462C46.1785 76.206 47.2141 74.6569 47.0901 73.1971C47.0299 71.801 45.6917 70.221 43.081 68.4586C41.3181 70.1608 39.2506 72.592 36.8824 75.7486C33.6007 80.0624 31.4731 82.7961 30.5014 83.9497C30.3811 82.3733 30.6527 80.9736 31.3218 79.7598C31.4421 79.3935 32.0201 78.4531 33.0538 76.9332C33.721 76.0219 34.0565 75.2929 34.0565 74.748C34.1768 73.9571 33.783 73.1953 32.8715 72.4699C30.2589 70.2811 28.6181 69.1876 27.949 69.1876C26.795 69.1275 25.6701 70.5873 24.5762 73.5616C24.3939 73.9242 23.9691 74.3525 23.3 74.8355L22.8442 75.1089C22.3574 74.2578 22.2371 73.3793 22.4796 72.4681C23.0284 71.3709 23.424 70.5855 23.6646 70.097C25.1231 67.4235 24.7275 65.118 22.4796 63.1698C21.4477 62.0161 20.6565 61.1377 20.1095 60.529C17.7394 57.7351 14.9446 57.1264 11.7231 58.7065C10.8717 59.133 10.4761 59.6779 10.5381 60.3467C10.5381 60.8315 10.6602 61.5004 10.9027 62.3515L14.549 75.0159C15.6428 78.6007 17.2837 83.9187 19.4714 90.9626C19.5917 91.5714 19.867 93.3337 20.2918 96.2478C20.4741 98.2526 19.867 99.3479 18.4687 99.5301C17.3128 99.5903 16.5526 98.8011 16.1898 97.1591L16.0968 95.9745C11.8434 80.9098 8.71311 69.5813 6.70948 61.9888C6.46518 60.8917 6.19353 60.1335 5.88907 59.7107C5.52444 58.9817 4.82618 58.4641 3.79247 58.1579C2.45793 57.8554 1.45338 57.1264 0.786116 55.9728C0.118848 54.8829 -0.123629 53.6054 0.0586846 52.1492ZM64.1419 9.77647C68.4554 9.77647 72.1327 11.4787 75.1718 14.8776C76.0834 15.9747 76.0524 16.793 75.0807 17.3416C74.2293 18.0068 73.5 17.9795 72.8929 17.2487C70.1582 14.0301 66.8766 12.7253 63.048 13.3303C61.7736 13.6365 61.0425 13.1809 60.862 11.9635C60.7399 10.8098 61.3488 10.1118 62.6852 9.8676L64.1419 9.77647ZM54.6616 13.1481C53.6297 13.1481 53.2031 12.5995 53.3854 11.5078C53.5695 10.4763 54.1146 10.0517 55.0262 10.2339C56.1201 10.4162 56.5759 10.9629 56.3935 11.8742C56.3334 12.7234 55.7555 13.1481 54.6616 13.1481ZM23.6683 57.7989C24.0329 58.4678 24.4285 59.4683 24.8533 60.806C25.4003 61.8375 26.1879 62.2932 27.2234 62.1729C28.9864 62.1127 29.8669 60.6529 29.8669 57.7989C27.9217 57.1301 25.856 57.1301 23.6683 57.7989ZM36.6125 54.1539H52.2933C53.5094 54.0337 54.1165 53.4249 54.1165 52.3315C54.2368 51.4202 53.6297 50.7823 52.2933 50.416L50.4702 50.1463C39.2269 48.6865 25.8889 48.8396 10.4524 50.6019C8.02214 50.8443 6.77511 50.9974 6.71495 51.0575C5.37859 51.4202 4.74049 52.1784 4.80066 53.3356C4.86082 54.5494 5.61925 55.2474 7.07958 55.4279C8.84255 55.3677 10.0859 55.2784 10.817 55.1581C12.456 55.1581 16.7422 54.8848 23.6701 54.3362C28.9554 53.9717 33.2707 53.9116 36.6125 54.1539ZM17.9254 79.1201C18.5343 78.5151 19.2618 78.4549 20.1132 78.9379C21.0247 79.4865 21.6027 80.0022 21.8451 80.487L28.3173 90.2409C26.0693 89.6924 24.0329 88.4476 22.2098 86.503C20.2025 84.132 18.7148 82.4352 17.7431 81.3982C17.1961 80.7932 17.2563 80.0314 17.9254 79.1201ZM37.7064 71.103C38.5578 69.7034 39.2251 68.7921 39.7119 68.3693C41.1704 67.1519 41.0482 65.8178 39.3472 64.358L33.6062 59.3462L31.0538 62.7178C29.2307 65.9399 30.3264 68.7648 34.3354 71.1923C35.7921 72.0434 36.917 72.0143 37.7064 71.103ZM45.3636 65.18C44.9388 66.6361 45.4839 67.5784 47.0026 68.003C47.9142 68.249 48.4611 67.6075 48.6434 66.0912C48.9479 64.2687 48.8859 62.8089 48.4593 61.7173C46.8221 62.2622 45.7884 63.4195 45.3636 65.18ZM46.2752 57.6167C43.3563 56.9478 40.7729 57.008 38.5268 57.7989C40.5924 60.9591 41.9598 62.5374 42.6289 62.5374C43.3581 62.5355 44.5742 60.8953 46.2752 57.6167Z" fill="white"/>
</svg>
