<svg width="123" height="169" viewBox="0 0 123 169" fill="none" xmlns="http://www.w3.org/2000/svg">
<path fill-rule="evenodd" clip-rule="evenodd" d="M74.421 30.0957C74.6298 33.4131 74.4899 36.1354 74.0035 38.2645C73.3773 41.0168 72.0539 43.3956 70.0374 45.3988C70.2483 45.9001 70.7346 45.9921 71.4986 45.6786C74.492 44.4901 76.7172 44.1146 78.1784 44.5521C79.9172 45.1153 81.5537 47.0867 83.0838 50.4661C88.5132 62.2321 94.0073 75.716 99.5745 90.9253C99.992 91.8641 100.201 93.2402 100.201 95.0557C100.341 102.376 100.514 106.79 100.723 108.292C100.933 112.484 102.01 116.864 103.958 121.434C105.281 124.626 107.402 128.788 110.327 133.917C112.83 138.237 116.658 144.746 121.808 153.443C123.198 155.884 123.373 157.949 122.329 159.638C121.286 161.328 119.198 162.331 116.067 162.644C111.961 163.146 108.866 162.894 106.778 161.893C104.76 160.955 102.812 158.889 100.933 155.698C99.0547 152.067 97.6269 149.376 96.6521 147.625L92.3729 140.394C90.634 137.64 88.8931 135.421 87.1543 133.73C84.998 131.852 83.3635 129.256 82.2489 125.938C81.274 122.059 80.4725 119.087 79.8483 117.02C78.3182 117.959 76.857 119.429 75.4647 121.434C73.5151 124.188 72.2981 125.814 71.8117 126.315C66.3135 131.948 65.8271 138.018 70.3505 144.527C72.3691 147.405 74.9429 151.913 78.074 158.044C79.3953 160.547 79.7439 162.582 79.1177 164.146C78.5604 165.586 76.9948 166.869 74.421 167.995C71.6385 169.058 69.1336 169.279 66.9042 168.652C64.679 167.965 62.9402 166.525 61.6856 164.334C60.3643 162.019 58.7298 158.578 56.7802 154.008C54.6928 149.19 53.0583 145.715 51.8747 143.588C50.6912 141.273 49.7497 137.518 49.0546 132.323C48.8459 130.696 49.1945 129.006 50.0983 127.254C50.3092 126.753 51.2819 125.221 53.0207 122.654C54.1333 120.903 56.3251 117.899 59.594 113.643C62.5164 109.888 64.6393 106.854 65.9628 104.537C67.2152 102.408 67.6327 100.562 67.2152 98.9984L63.3535 84.8236C62.8671 84.8236 62.4475 84.7917 62.0989 84.7297C59.594 86.9188 57.3668 88.0472 55.4192 88.1091C53.6804 88.1091 51.2089 87.2023 48.0088 85.3868C46.4787 84.51 43.9738 83.3535 40.4941 81.9135C37.0833 80.4097 34.5429 79.1912 32.875 78.2525C32.111 80.006 31.4827 82.1313 30.9984 84.6339C30.7876 86.0101 30.4766 88.0772 30.0591 90.8315C29.5727 92.9586 28.9465 94.2728 28.1804 94.7741C27.5542 95.2116 26.093 95.2116 23.7968 94.7741C20.8744 94.2728 19.1356 93.6476 18.5782 92.8967C17.8831 92.0818 17.8455 90.3621 18.4739 87.7336C19.5176 82.1632 20.6302 74.5295 21.8137 64.8286C23.2061 53.6878 24.2498 46.0221 24.9449 41.8298C25.64 35.2587 26.1973 30.3153 26.6148 26.9997C27.3809 21.1777 28.3912 16.2663 29.6416 12.2598C30.9629 8.50489 32.0776 5.6887 32.9815 3.81124C33.6787 2.56085 34.6159 1.58833 35.8016 0.901181C37.1229 0.150197 38.4463 -0.131422 39.7656 0.0563237C43.0366 0.493772 46.341 1.93378 49.6809 4.37448C50.5868 5.06351 50.8644 6.53356 50.5158 8.78838C50.0295 11.0413 48.9857 13.8575 47.3847 17.2369C46.4099 19.3022 45.7836 20.6464 45.506 21.2716C44.9487 22.9613 44.8109 24.8087 45.0906 26.8101C46.6186 23.932 48.9523 21.9926 52.0835 20.99C55.701 20.239 58.4146 19.6758 60.2244 19.3003C63.0759 18.6751 66.1026 19.6138 69.3047 22.1165C72.5068 24.4952 74.2123 27.1556 74.421 30.0957ZM68.3675 25.4959C64.3325 22.0545 59.2538 21.4293 53.1293 23.6184C50.8331 24.4332 49.1632 25.7475 48.1195 27.563C47.0758 29.2508 46.6228 31.0982 46.7647 33.1015C46.8336 37.4196 47.7041 40.5156 49.374 42.393C50.9041 44.3343 53.6177 45.5547 57.5129 46.0541C59.9489 46.3676 62.316 45.9301 64.6101 44.7398C66.9752 43.5514 68.785 41.8917 70.0374 39.7664C71.4297 37.3877 71.9516 34.7912 71.603 31.975C71.2565 29.2208 70.1773 27.0617 68.3675 25.4959ZM62.6271 33.1015C61.6522 31.9731 60.5751 31.224 59.3916 30.8485C58.9741 30.7246 58.7319 30.5031 58.661 30.1895C58.4501 29.8159 58.4856 29.5024 58.7653 29.2508C59.1828 28.5017 59.8445 28.1882 60.7484 28.3121C64.5057 28.5637 66.0713 31.4099 65.4451 36.8564C64.1926 35.0409 63.2533 33.7886 62.6271 33.1015ZM72.2313 49.3396C69.1002 50.7796 65.969 52.5012 62.8379 54.5026C59.2204 56.5697 58.3144 59.8853 60.1222 64.4531L63.0446 61.3572C65.3407 58.1655 67.115 55.8488 68.3675 54.4106C70.8724 51.846 73.6549 51.4386 76.7172 53.1903C77.5522 53.7554 77.8653 54.3487 77.6565 54.9739C77.3079 55.8506 76.7172 56.1642 75.8822 55.9126C74.0724 55.0358 72.5068 55.0358 71.1855 55.9126C70.768 56.2881 69.8976 57.3826 68.5762 59.1981L60.4353 70.0874C58.279 72.7797 56.6445 74.2497 55.5298 74.5013C54.3463 74.8768 52.2922 74.1258 49.3719 72.2484L38.5173 65.114C37.3358 64.363 36.0458 64.1434 34.6556 64.455C33.2633 64.6447 32.1152 65.2379 31.2113 66.2386C29.4015 68.178 29.3681 70.0255 31.107 71.7771C32.708 73.4668 34.2736 74.7491 35.8037 75.6259C37.3337 76.5646 39.8053 77.723 43.214 79.1011C46.6228 80.5411 49.1632 81.7276 50.8331 82.6664C52.9894 84.0425 54.8326 84.5758 56.3627 84.2641C57.8239 84.0745 59.2162 82.9499 60.5376 80.8828C62.0676 78.8176 64.1217 76.1891 66.6954 72.9993C70.1042 68.807 72.2271 66.1767 73.0621 65.114C73.968 63.7378 74.8719 63.2685 75.7758 63.7059C76.6817 64.2072 76.6107 65.1459 75.567 66.5221L66.9042 77.693C65.514 79.3808 65.1654 81.1344 65.8605 82.9499L70.2462 97.2186C71.15 100.41 70.9413 102.913 69.6199 104.728C68.0899 106.857 65.8605 110.047 62.9402 114.305C60.2954 118.122 57.9638 121.25 55.9452 123.693C51.7704 128.949 51.4927 135.051 55.1123 141.998C56.6424 145.002 57.9638 147.91 59.0764 150.726C61.3746 155.983 63.2157 159.864 64.608 162.366C65.3741 163.806 66.4867 164.745 67.9479 165.183C69.4091 165.62 70.9058 165.528 72.4359 164.901C75.1495 163.713 75.8801 161.522 74.6277 158.33C74.2102 157.017 73.0621 154.982 71.1855 152.228C69.6554 149.849 67.6014 146.094 65.0276 140.963C62.6605 136.332 63.2512 131.922 66.8019 127.727C71.8827 121.781 75.1516 117.245 76.6128 114.116C77.3079 112.552 78.7691 111.895 80.9964 112.144C81.9712 112.268 82.5265 112.708 82.6684 113.459C82.8062 113.896 82.8772 114.553 82.8772 115.43C84.0587 123.441 87.2253 129.699 92.375 134.204C93.2809 135.081 94.1848 136.395 95.0886 138.147C100.867 148.038 104.136 153.604 104.899 154.857C106.987 158.424 110.258 159.832 114.71 159.081C117.355 158.58 118.85 157.922 119.198 157.109C119.683 156.233 119.267 154.763 117.944 152.696C113.351 145.751 110.882 141.962 110.533 141.337C105.453 131.636 102.357 125.598 101.244 123.221C98.7395 118.09 97.4871 113.175 97.4871 108.481C97.4871 99.4077 95.9904 90.6775 92.9991 82.2909C92.304 80.6031 89.9055 74.6872 85.7996 64.5508L80.1635 51.7822C79.2576 49.9686 78.1805 48.8721 76.928 48.4966C75.8133 48.1211 74.2478 48.4009 72.2313 49.3396ZM61.6877 49.1537C56.609 50.1544 52.4008 49.5611 49.0588 47.3702C45.7189 45.1172 43.9091 41.7059 43.6315 37.138V29.2527C38.3441 40.769 35.0021 51.3767 33.6119 61.0756C35.6304 60.5124 37.507 60.6062 39.2458 61.3572C40.2207 61.8585 41.5775 62.8892 43.3163 64.4531C44.7775 65.7674 47.5955 67.6448 51.7704 70.0855C53.0938 70.9003 54.2753 71.0881 55.319 70.6506C56.5026 70.1494 56.92 69.3045 56.5735 68.1142C56.4337 67.2994 56.4671 66.0809 56.6779 64.4531C56.8157 62.9512 56.7468 61.7947 56.4671 60.9799C55.4922 58.7889 55.6342 56.8494 56.8846 55.1597C57.0954 55.0339 58.661 53.6878 61.5813 51.1232C63.2512 50.498 64.2594 49.747 64.608 48.8702C64.1237 48.6844 63.1489 48.7783 61.6877 49.1537ZM81.8314 71.12C85.7286 76.0014 88.58 81.6638 90.3898 88.111C90.6006 88.9258 90.252 89.4872 89.3461 89.7988C88.9996 89.8627 88.651 89.8627 88.3024 89.7988C88.0936 89.6749 87.9559 89.5191 87.887 89.3295C87.5384 88.3288 86.3569 85.3568 84.3384 80.4115C82.7373 76.7843 81.9003 73.6846 81.8314 71.12ZM46.6604 6.7213C46.032 5.72062 44.3287 4.84384 41.5462 4.09474C39.7364 3.5315 38.3107 3.56342 37.2669 4.18861C36.2232 4.68989 35.3528 5.87832 34.6577 7.75578C32.3594 14.0134 30.9671 19.1144 30.4828 23.0552C28.2555 40.5794 26.7234 51.8761 25.8905 56.9433C25.7506 58.1336 25.5064 60.3547 25.1578 63.6102C24.8113 66.4883 24.4982 68.7413 24.2205 70.369C23.9408 71.4955 23.037 76.8782 21.5048 86.5152C21.5048 88.2687 21.5424 89.2994 21.6113 89.613C21.749 90.6756 22.7239 91.3665 24.5316 91.6782C25.9239 91.804 26.7589 91.4285 27.0365 90.5517C28.1491 84.5438 28.9152 80.0379 29.3326 77.034C29.4725 76.2192 29.0216 75.502 27.9779 74.8768C24.9845 72.5619 24.6735 69.6819 27.0386 66.2386C28.1512 64.6747 29.126 62.6076 29.961 60.043C30.6561 57.1649 31.2468 55.0039 31.7353 53.5658C33.4741 47.6837 34.8309 43.3017 35.8058 40.4236C36.9872 36.357 38.6927 31.4118 40.9199 25.5935C43.4228 19.1463 45.3035 14.2649 46.5539 10.9475C47.3889 9.00617 47.4244 7.59807 46.6604 6.7213ZM55.9473 24.8407C56.7823 25.3419 56.991 26.061 56.5756 26.9997C56.2959 27.7488 55.7052 28.0323 54.7992 27.8427C53.9663 27.2795 53.791 26.5604 54.2774 25.6855C54.7637 24.8106 55.3211 24.5271 55.9473 24.8407ZM16.8081 20.898C17.9207 22.4 18.4112 24.4952 18.2693 27.1875C18.1315 29.5024 17.1212 31.5995 15.2425 33.477C13.295 35.4183 11.1741 36.3889 8.87588 36.3889C6.30209 36.3251 4.14369 35.4502 2.40487 33.7605C0.734928 32.1346 -0.0666425 30.1614 0.00432994 27.8465C0.073215 25.969 0.215157 24.5928 0.421812 23.7179C0.770412 22.2779 1.53441 21.2453 2.71798 20.6201C4.94526 19.5575 8.043 18.9304 12.007 18.7427C14.0944 18.6751 15.6955 19.3941 16.8081 20.898ZM10.2327 21.9306C5.77815 21.8067 3.55295 23.4006 3.55295 26.7181C3.55295 28.5956 4.03932 30.0975 5.01415 31.224C6.05786 32.4124 7.3792 32.9438 8.97817 32.8199C10.3705 32.8199 11.7628 32.1327 13.153 30.7546C14.5453 29.3146 15.278 27.8127 15.3469 26.2487C15.4179 23.3687 13.7124 21.9306 10.2327 21.9306ZM91.1204 100.5C90.0767 100.69 89.3816 100.155 89.033 98.9045C88.5466 97.4025 88.8931 96.1202 90.0767 95.0557C90.7718 95.4932 91.3291 96.0564 91.7466 96.7436C92.0243 97.181 92.2685 97.7762 92.4772 98.5271C92.5461 99.0284 92.4772 99.4659 92.2685 99.8414C91.9199 100.157 91.54 100.376 91.1204 100.5ZM65.0276 149.408C64.679 150.347 64.1926 150.784 63.5664 150.722C62.1741 150.473 61.479 149.784 61.479 148.657C61.6168 147.842 62.1386 147.437 63.0446 147.437C64.3659 147.437 65.0276 148.096 65.0276 149.408ZM67.2194 158.326C66.2446 158.326 65.6538 157.952 65.4451 157.2C65.1654 155.885 65.7227 155.102 67.115 154.853C67.6724 154.729 68.0899 154.821 68.3675 155.134C68.785 155.322 69.0292 155.666 69.1002 156.167C69.2379 157.17 68.6117 157.891 67.2194 158.326Z" fill="white"/>
</svg>
