<svg width="96" height="153" viewBox="0 0 96 153" fill="none" xmlns="http://www.w3.org/2000/svg">
<path fill-rule="evenodd" clip-rule="evenodd" d="M66.1974 11.2367C66.0835 11.8606 66.3383 13.0794 66.96 14.8914C67.9231 17.5534 67.2997 20.0199 65.0916 22.2858C65.2615 18.15 64.667 14.6942 63.3081 11.9167C63.0245 11.4067 63.0245 10.9256 63.3081 10.4718C63.5901 9.84794 64.0725 9.50797 64.7519 9.45017C65.2615 9.39408 65.6572 9.56236 65.9409 9.96013C66.2245 10.3035 66.3095 10.7285 66.1974 11.2367ZM67.3846 5.20393C65.4602 3.84404 63.3098 3.30689 60.9301 3.58906C57.2494 3.92903 54.6166 4.55288 53.0336 5.46061C51.3911 6.42273 49.8896 8.12258 48.5324 10.5602C47.5133 12.3161 47.2025 15.092 47.5982 18.8878C47.8241 21.2115 48.9842 23.3924 51.0803 25.4339C53.0625 27.4738 55.2978 28.7215 57.7895 29.1736C62.2618 30.0796 65.9137 28.3798 68.7452 24.074C71.631 19.6527 72.4242 15.1209 71.1215 10.4752C70.4998 8.20588 69.2547 6.44992 67.3846 5.20393ZM63.9026 0.104356C68.0929 0.728204 71.0926 3.27799 72.9049 7.75371C74.775 12.3994 74.775 17.2746 72.9049 22.3742C70.8106 28.0398 67.0466 31.4956 61.6113 32.7433C59.8567 33.1394 58.6099 33.2244 57.8745 32.9983C54.4774 32.4305 51.5049 30.7868 48.9571 28.0687C46.5213 25.2911 45.1642 22.1481 44.8805 18.6345L44.6275 15.7447C44.2878 12.5728 44.996 9.71025 46.7506 7.16046C48.5613 4.55458 51.1669 2.79863 54.564 1.88921C57.5076 0.983182 59.0091 0.52932 59.0651 0.52932C60.9301 0.0193631 62.5438 -0.121725 63.9026 0.104356ZM56.6838 8.77363C55.6646 8.09369 55.2128 7.41204 55.3249 6.7338C55.6086 5.65609 56.429 5.17503 57.7878 5.28722C58.9191 5.45891 59.7123 5.71219 60.1641 6.05216C60.9013 6.50602 61.241 7.24206 61.1849 8.26197C61.1849 9.33968 60.7603 9.84964 59.911 9.79184C58.7798 9.67965 57.7046 9.33968 56.6838 8.77363ZM72.9915 47.9553C70.7257 44.0457 67.5273 42.2319 63.3947 42.5158H52.3542C51.5609 42.5158 51.0242 42.4308 50.7405 42.2608C50.287 42.0908 50.0628 41.6387 50.0628 40.9009C50.0051 42.2608 49.8352 43.2535 49.5516 43.8757C49.1558 44.7817 48.3914 45.4345 47.2585 45.8305C46.8628 45.9427 46.4653 46.2266 46.0695 46.6805C45.8997 46.8504 45.5888 47.2176 45.1353 47.7837C38.1135 54.9231 32.5661 62.3463 28.4895 70.0535C26.847 73.1132 27.0441 76.0319 29.084 78.8061C30.0454 79.996 30.8115 80.6198 31.3788 80.6776C32.0565 80.6776 32.9346 80.1099 34.0115 78.9778C38.7114 73.9343 42.1646 68.4658 44.3727 62.5741L45.5617 59.5994C46.1273 58.6372 46.8067 58.3245 47.5999 58.6644C48.5052 58.9483 48.8178 59.5994 48.5341 60.6193L47.6848 64.7822C46.608 72.6033 46.0152 76.909 45.9014 77.7029C45.278 82.5746 44.9383 86.9093 44.8805 90.7051C44.8245 92.2927 44.5425 93.5676 44.0313 94.5297C43.4096 95.5514 42.4193 96.4013 41.0588 97.0795C37.04 98.9511 32.228 102.266 26.6211 107.025C24.5268 108.837 23.5366 111.19 23.6487 114.078C23.7047 116.234 24.0444 118.697 24.6695 121.474C24.9515 123.06 25.5188 125.44 26.368 128.614C26.5939 129.858 26.9897 131.729 27.557 134.223C28.0666 136.263 28.7732 137.963 29.6802 139.323L29.5087 139.151C30.3019 140.681 31.0951 141.616 31.8866 141.956C32.6221 142.296 33.6141 142.126 34.8591 141.446C36.8974 140.368 37.66 138.471 37.1521 135.75L35.5385 128.1C34.9169 124.984 34.2646 122.463 33.5869 120.538C33.1334 119.176 33.0196 118.017 33.2472 117.051C33.5308 116.257 34.1814 115.407 35.2005 114.501C37.4086 112.575 39.0511 111.102 40.1246 110.082C42.1068 108.326 43.6627 106.738 44.7956 105.322C45.9285 103.962 46.9749 103.112 47.9396 102.772C48.845 102.545 49.949 102.658 51.2501 103.112C52.8366 103.678 53.854 104.331 54.3092 105.065C54.8748 105.859 55.1585 107.275 55.1585 109.315L54.7338 127.844C54.62 135.039 55.1279 140.989 56.2608 145.692C56.6566 147.846 57.4498 149.148 58.6388 149.602C61.3565 150.622 63.5918 150.452 65.3481 149.092C67.2165 147.788 68.008 145.692 67.7243 142.802C67.5545 141.556 67.4407 140.649 67.3846 140.083C66.819 135.549 66.622 132.178 66.7901 129.968C66.8462 127.023 66.678 123.878 66.2806 120.534C65.7133 116.285 65.7133 112.004 66.2806 107.699C66.5065 105.205 66.5914 103.279 66.5337 101.921C66.1379 96.6495 65.9392 90.4178 65.9392 83.2223C66.109 74.893 66.2228 68.6307 66.2789 64.4389C66.2789 62.2851 66.8445 60.6992 67.9774 59.6776C69.5622 62.3412 71.2318 65.6849 72.9882 69.7067C74.0073 71.9165 75.5054 75.2313 77.4876 79.6509C78.6206 82.0307 81.2244 86.3942 85.3026 92.7398C86.546 94.4958 87.8505 95.2046 89.2093 94.8646C90.6803 94.4108 91.7011 93.4486 92.2667 91.9749C92.9461 90.5589 93.0039 89.114 92.4366 87.6402C91.7588 85.6582 90.541 82.7395 88.7864 78.8877C88.4467 78.0938 84.6249 70.2745 77.3212 55.4279C76.4158 53.7332 74.9721 51.2429 72.9915 47.9553ZM79.3611 53.3082C79.6431 53.8199 81.9939 58.4945 86.4084 67.332C89.2399 72.9993 91.392 77.7861 92.8629 81.6958C93.1466 82.4336 93.6833 83.5385 94.4765 85.0105C95.7216 87.2765 96.2039 89.2602 95.922 90.96C95.6944 92.5477 94.6481 94.2187 92.778 95.9746C90.9096 97.7867 89.6085 98.6944 88.8713 98.6944C88.0781 98.6944 86.8042 97.8734 85.0496 96.2296C82.9553 94.3037 81.0291 91.7828 79.2745 88.6669C79.0486 88.327 77.576 85.5205 74.8583 80.2526C72.4803 75.097 70.6119 71.0156 69.253 68.0137C68.6857 69.1475 68.4038 71.1584 68.4038 74.0482V107.792C68.4038 115.385 68.4887 121.022 68.6569 124.704C68.9966 130.937 69.5928 136.547 70.442 141.533L70.6951 144.847C70.7512 147.341 70.4981 148.956 69.9308 149.692C69.4212 150.43 68.0063 151.138 65.6844 151.817C60.8163 153.12 57.7301 153.347 56.429 152.497C55.184 151.703 54.1071 148.842 53.2017 143.912C52.5784 139.889 52.2675 134.816 52.2675 128.699C52.3236 121.955 52.3236 116.885 52.2675 113.485C52.2675 110.311 52.1826 108.273 52.0128 107.365C51.7291 105.098 50.6539 104.702 48.7872 106.175C47.4267 107.251 43.7476 110.481 37.7466 115.865C36.274 117.225 35.8205 118.697 36.3861 120.284C36.5576 121.078 36.8396 122.863 37.2354 125.639C37.5751 127.905 38.0558 129.661 38.6808 130.908C38.9628 131.588 39.2176 132.496 39.4452 133.628C39.5573 134.252 39.7271 135.216 39.9547 136.518C40.5204 139.862 39.8409 142.241 37.9165 143.657C36.5576 144.619 34.2069 145.216 30.8675 145.442C29.0569 145.556 27.7541 144.395 26.9608 141.957C26.3392 139.974 25.5171 136.746 24.4979 132.268C23.4228 127.963 22.6295 124.76 22.1217 122.666C21.2724 118.87 20.8766 115.554 20.9327 112.72C20.9327 110.342 21.697 108.385 23.2257 106.855C27.3022 102.606 32.1142 98.98 37.6634 95.978C40.7785 94.2782 42.3633 91.9545 42.421 89.0069C42.421 86.911 42.6181 84.3323 43.0155 81.2726C43.4691 77.8167 43.8088 75.2109 44.0347 73.4532L43.7816 71.2434C42.9323 71.7534 42.224 72.5472 41.6584 73.6215C41.2626 74.1892 40.7242 75.0392 40.0448 76.1713C37.8367 79.231 35.7695 81.6669 33.8451 83.4807C32.3181 85.0105 30.8165 85.0394 29.3456 83.5674C28.0428 82.4336 26.8827 80.9037 25.8636 78.9778C25.692 78.6939 24.9005 76.9651 23.4856 73.7932C23.2019 73.3393 23.4295 72.6883 24.165 71.8383C25.692 69.9107 27.4194 67.0516 29.3456 63.2541C30.3647 61.1003 31.5248 59.4005 32.8276 58.1545C34.0727 56.9646 35.6302 54.9809 37.4986 52.205C40.5 47.7276 44.6886 43.959 50.0679 40.9009C50.2938 39.9388 50.7456 39.3728 51.4268 39.2011C51.8225 39.0889 52.5869 39.0311 53.7198 39.0311C58.8155 38.8594 62.6372 38.7472 65.185 38.6911C67.1672 38.635 68.9507 39.2283 70.5355 40.476C71.7244 41.3259 72.9695 42.713 74.2723 44.6406C76.3581 47.5865 78.0566 50.4762 79.3611 53.3082ZM62.7136 73.1132V80.6776C62.7136 81.9814 62.1769 82.6307 61.1017 82.6307C60.2524 82.6307 59.8838 82.0647 59.9976 80.9309C59.9976 76.003 60.1097 71.0717 60.3374 66.1438C60.3374 64.7822 60.8469 64.1312 61.8643 64.189C62.4317 64.2451 62.7697 64.5018 62.8852 64.9539C62.8852 65.01 62.8852 65.52 62.8852 66.4821V73.1115H62.7136V73.1132ZM61.3548 91.8967C60.4495 91.7267 59.9959 91.1317 59.9959 90.1118C59.9959 89.4319 60.1658 88.9491 60.5055 88.6669C60.9013 88.2709 61.3837 88.0992 61.951 88.1553C62.5726 88.2131 62.8852 88.8352 62.8852 90.0268C62.9412 91.0467 62.4317 91.6706 61.3548 91.8967ZM59.6562 125.469C60.6771 125.583 61.1289 126.093 61.0151 126.999C60.959 127.677 60.4206 128.16 59.4032 128.444C58.5539 128.104 58.1292 127.538 58.1292 126.744C58.1853 125.894 58.6949 125.469 59.6562 125.469ZM60.762 137.876C60.762 138.67 60.2524 139.066 59.2333 139.066C58.0443 138.954 57.4787 138.388 57.5347 137.366C57.5347 136.46 58.0443 136.062 59.0634 136.176C60.3085 136.292 60.8741 136.858 60.762 137.876ZM58.4672 146.547C58.3551 146.207 58.4112 145.894 58.6388 145.612C58.7509 145.384 58.9785 145.216 59.3165 145.101C60.6771 144.931 61.4397 145.525 61.6113 146.887C61.6673 147.453 61.2987 147.934 60.5072 148.332C59.7123 148.332 59.0346 147.737 58.4672 146.547ZM16.7678 96.2296C15.6349 96.3435 15.0693 95.9474 15.0693 95.0414C15.0693 94.3037 15.4379 93.8226 16.1733 93.5948C17.1925 93.4826 17.787 93.8498 17.9568 94.6997C18.1267 95.4375 17.7309 95.9474 16.7678 96.2296ZM18.9759 83.9923C17.2774 82.1786 14.9011 81.3847 11.8437 81.6125C11.1066 81.7247 9.91758 81.8675 8.27508 82.0375C6.86019 82.3214 5.72726 82.9724 4.87798 83.9923C2.72592 86.4282 2.33016 89.799 3.689 94.1048C4.93403 98.3544 7.11497 100.904 10.2301 101.754L11.2492 101.926C14.93 102.436 17.7037 101.472 19.5721 99.0361C21.2146 96.9401 21.8652 94.1626 21.5238 90.7068C21.3539 87.817 20.5046 85.5783 18.9759 83.9923ZM24.1582 94.2765C23.9867 94.9547 23.4211 96.5985 22.4597 99.2044C20.931 103.116 17.9585 105.154 13.5423 105.326C9.40802 105.552 6.46443 104.107 4.70983 100.991C3.689 99.5732 2.95522 98.5261 2.50171 97.8445C0.46345 95.2386 -0.329775 92.8588 0.123737 90.7051C-0.15992 88.327 0.208668 86.2293 1.2278 84.4173C2.13313 82.6596 3.49197 81.3559 5.30262 80.5059C10.5104 78.0139 14.9283 77.8439 18.5513 79.996C20.4775 81.1298 22.035 83.2546 23.2223 86.3704C24.4113 89.4897 24.7238 92.1227 24.1582 94.2765ZM11.1626 96.5713C11.1626 97.3651 10.6531 97.8462 9.63392 98.0179C8.78465 98.074 8.21903 97.6779 7.93537 96.8279C7.65341 95.8641 8.04918 95.3253 9.12436 95.2131C10.4832 95.0975 11.1626 95.5514 11.1626 96.5713ZM32.3945 137.198C32.5644 138.558 31.941 139.182 30.5261 139.068L29.6768 139.153L29.5902 138.389C29.4781 136.916 30.1015 136.209 31.4603 136.265C32.0837 136.263 32.3945 136.574 32.3945 137.198ZM30.5278 127.252C31.7151 127.082 32.3113 127.648 32.3113 128.952C32.3113 129.576 31.8017 130.086 30.7826 130.482C29.9333 130.426 29.5087 129.916 29.5087 128.952C29.3949 127.82 29.7346 127.252 30.5278 127.252Z" fill="white"/>
</svg>
