<svg width="170" height="121" viewBox="0 0 170 121" fill="none" xmlns="http://www.w3.org/2000/svg">
<path fill-rule="evenodd" clip-rule="evenodd" d="M140.628 2.95435C142.497 3.69201 143.799 4.18477 144.537 4.42967C146.258 4.97112 148.051 6.17646 149.92 8.04423C152.379 10.4062 154.001 11.8063 154.788 12.2504C155.574 12.7904 155.55 13.5767 154.714 14.6109C153.043 16.8726 150.289 20.046 146.454 24.1268C145.717 24.9618 145.004 24.9618 144.315 24.1268C143.922 23.6842 143.308 23.2401 142.472 22.799C141.587 22.1587 140.948 21.6674 140.554 21.3237C138.489 19.1107 135.908 17.8817 132.811 17.6353C129.713 17.4391 126.911 18.2505 124.404 20.0696C120.815 22.7252 117.151 26.5596 113.415 31.5772C112.825 32.3635 112.8 33.1012 113.341 33.7902L114.226 34.8229C117.275 37.8709 121.06 42.322 125.584 48.1746C130.696 54.8623 134.334 59.4107 136.498 61.8214C145.004 71.2635 151.936 78.6652 157.295 84.0251C159.95 86.632 163.637 90.8854 168.357 96.7867C170.078 98.9997 170.447 101.778 169.463 105.121C168.431 108.367 166.562 110.506 163.859 111.54C162.826 111.934 161.695 111.81 160.466 111.171C157.32 109.302 154.467 107.139 151.911 104.68C147.29 100.302 143.751 96.7631 141.292 94.0573C137.556 90.0754 134.482 86.1894 132.073 82.4037C131.14 81.0759 130.451 80.3869 130.008 80.3383C129.615 80.3383 128.755 80.8561 127.427 81.8874C126.346 82.774 122.952 85.2319 117.25 89.264C116.808 89.5591 116.07 89.9766 115.038 90.5195C112.138 92.8299 110.809 95.1653 111.055 97.5273C111.302 99.8878 113.095 101.905 116.439 103.576C118.995 104.904 122.069 106.084 125.657 107.117C127.28 107.608 128.238 108.198 128.533 108.887C128.78 109.575 128.559 110.705 127.87 112.281L125.067 117.592C124.084 119.362 123.125 120.42 122.191 120.764C121.258 121.158 119.806 121.059 117.84 120.469C111.055 118.304 105.181 115.6 100.214 112.354C94.6096 108.569 91.8559 102.986 91.9547 95.6094C92.0535 93.4451 93.086 91.2808 95.0521 89.1179C98.0507 85.7247 100.756 83.0942 103.164 81.2249L105.45 79.2318C106.828 78.0028 106.679 76.9214 105.008 75.986C100.436 73.1844 96.4533 68.5356 93.0609 62.0457C92.7659 61.4555 92.3485 60.5202 91.8072 59.2425C91.2659 58.2098 90.6036 57.4471 89.816 56.9558C86.816 60.4464 84.4811 63.0046 82.81 64.6275C80.5976 66.8892 77.3276 68.8809 73.0016 70.6026C69.9042 71.8802 66.733 72.2254 63.4882 71.6353C61.0796 71.1425 58.1783 70.036 54.7859 68.3158C52.6709 67.1828 50.3109 65.5127 47.7062 63.2997C46.2799 61.9719 44.1412 60.0053 41.2902 57.3984C40.7488 57.0045 40.0114 56.3406 39.0777 55.4067C38.0939 54.8652 37.5054 54.25 37.3078 53.5625C37.1603 52.9222 37.234 51.9382 37.529 50.6119C38.119 48.3 39.2001 45.7182 40.7739 42.8664C41.7076 41.096 42.5188 40.1356 43.2076 39.9895C43.7976 39.8405 45.0026 40.3097 46.8212 41.3911C50.0661 43.2087 52.8685 45.0042 55.2284 46.7745C58.8671 49.3313 62.9719 49.9465 67.5443 48.6187C73.1491 47.0947 77.9176 44.0216 81.8513 39.3979C83.4251 37.6275 86.5962 34.2829 91.3647 29.3657C95.3958 25.2348 98.4695 21.7913 100.583 19.0384C102.943 16.0877 105.992 13.2344 109.728 10.4815C110.809 9.69512 114.25 7.33312 120.052 3.3999C124.379 0.596772 129.983 0.00516591 136.867 1.6295C137.851 1.87146 139.104 2.31553 140.628 2.95435ZM145.274 22.0598C147.978 18.913 149.429 17.2163 149.625 16.97C150.805 15.5935 151.37 14.5608 151.321 13.8718C151.273 13.2315 150.559 12.2489 149.183 10.9211C145.249 7.13543 139.939 4.74835 133.253 3.76578C127.994 3.12548 123.765 3.81446 120.569 5.82976C118.946 6.91118 116.464 8.5606 113.12 10.7736C110.366 12.6915 108.105 14.5844 106.335 16.4536C95.6671 27.6159 87.8735 36.1241 82.9575 41.9768C78.779 46.9442 73.7641 50.1398 67.913 51.5664C65.2581 52.1565 63.0206 52.3778 61.202 52.2303C58.7432 52.0326 56.581 51.1725 54.7122 49.6485C53.6311 48.7633 52.2048 47.8043 50.4348 46.7716C49.5012 46.1313 48.0262 45.2225 46.01 44.0422C45.8138 43.8932 45.5424 43.7221 45.1988 43.5244C44.8551 43.3282 44.4864 43.3533 44.0926 43.5996C42.9613 44.2385 42.0276 45.2461 41.2902 46.6241C40.9952 47.313 40.5527 48.5907 39.9627 50.4599C39.7164 51.444 39.914 52.2554 40.5527 52.8942C41.4863 53.5832 42.15 54.0981 42.5439 54.4433C44.805 56.2624 46.4525 57.689 47.4849 58.7218C50.4348 61.4747 53.0411 63.5166 55.3022 64.8429C58.1046 66.4672 60.4645 67.5472 62.3819 68.0886C65.0855 68.9236 67.6416 69.0225 70.0517 68.3837C75.1167 67.0559 79.0975 64.8429 81.9988 61.7447C83.8675 59.7766 86.0062 57.2449 88.4148 54.1468C89.1523 53.2616 89.7909 52.844 90.3322 52.8927C90.8736 52.8927 91.4635 53.4091 92.1022 54.4418C94.0196 57.9826 95.4459 60.6382 96.3795 62.4086C99.9194 68.5061 104.418 72.612 109.875 74.7276C111.055 75.0713 111.572 75.6128 111.424 76.3504C111.325 77.5322 110.834 78.3436 109.949 78.7847C107.737 79.965 105.524 81.6867 103.312 83.9484C102.279 84.8823 100.362 86.9241 97.5595 90.071C94.6583 93.3152 93.9945 97.0788 95.5683 101.356C97.0919 105.093 99.0094 107.748 101.321 109.323C106.729 113.06 112.334 115.666 118.135 117.142C119.709 117.536 120.864 117.559 121.601 117.216C122.24 116.921 122.954 116.012 123.74 114.486L124.699 112.642C125.337 111.314 125.584 110.454 125.436 110.06C125.289 109.666 124.576 109.297 123.297 108.954C118.283 107.723 114.128 105.805 110.834 103.2C109.309 102.068 108.35 101.061 107.958 100.176C107.614 99.2903 107.688 98.0363 108.179 96.4134C109.26 92.0848 111.744 88.8642 115.628 86.75C116.808 86.0611 118.356 85.0032 120.274 83.5781C122.486 81.9552 124.01 80.8738 124.846 80.3324C126.075 79.546 126.738 78.6372 126.837 77.603C126.641 76.8653 126.519 76.3239 126.469 75.9787C126.42 75.2897 126.74 74.8722 127.427 74.7246C128.066 74.5771 128.656 74.7246 129.197 75.1672C129.296 75.2159 129.713 75.6098 130.451 76.3475C131.778 77.6753 132.615 78.6357 132.958 79.2244C135.761 83.7477 139.423 88.3965 143.947 93.1662C146.405 95.7731 150.658 99.879 156.705 105.485C158.279 106.813 159.729 107.747 161.056 108.288C162.04 108.632 162.999 108.56 163.932 108.067C165.85 107.036 167.03 105.634 167.472 103.862C167.915 102.043 167.472 100.271 166.145 98.5512C162.948 94.5678 159.851 90.9532 156.853 87.7061C154.543 85.198 149.208 79.5431 140.849 70.7398C137.457 67.1488 132.442 61.2239 125.805 52.9621C119.561 45.1428 114.521 39.3404 110.687 35.5532C110.145 35.0117 109.85 34.6916 109.802 34.5942C109.555 34.2992 109.555 34.0056 109.802 33.709C110.244 33.2163 110.588 32.3812 110.834 31.201C111.03 29.972 111.375 29.1104 111.867 28.6192C114.521 25.6198 116.439 23.5529 117.619 22.4228C119.831 20.1611 122.044 18.4394 124.256 17.2591C130.206 14.0134 135.613 14.186 140.481 17.777C143.038 19.7982 144.635 21.2233 145.274 22.0598ZM108.623 38.436C110.442 39.5159 111.794 40.919 112.679 42.6407C113.073 43.427 112.679 43.8947 111.499 44.0422C110.909 44.0422 110.098 43.427 109.066 42.1981C108.033 41.0178 107.517 40.0825 107.517 39.395C107.663 38.4611 108.032 38.1409 108.623 38.436ZM115.701 46.7716L118.504 49.4272C119.241 50.1162 120.569 51.6151 122.486 53.9284C124.109 55.8463 125.51 57.2479 126.69 58.1331C127.377 58.6731 127.55 59.3134 127.206 60.051C127.059 60.2974 126.74 60.5172 126.247 60.7149C125.362 60.7149 124.699 60.3948 124.256 59.756C123.175 58.1331 121.725 56.3627 119.905 54.4448C118.824 53.3634 117.225 51.6903 115.111 49.4287L114.153 48.0286C113.858 47.5358 113.98 47.0445 114.521 46.5532C114.915 46.4028 115.309 46.4765 115.701 46.7716ZM128.46 64.0329C129.393 64.2291 130.303 64.6481 131.188 65.287C132.025 66.1235 132.638 66.6885 133.032 66.9836C133.77 67.5236 133.868 68.1638 133.327 68.9015C132.786 69.4916 132.147 69.4916 131.41 68.9015C129.738 67.5236 128.755 65.9022 128.46 64.0329ZM111.942 84.9088C112.089 85.6952 111.769 86.1865 110.983 86.3842C110.197 86.2351 109.803 85.9401 109.803 85.4975C109.803 84.8085 110.246 84.4161 111.131 84.3172C111.573 84.2213 111.843 84.4161 111.942 84.9088ZM106.188 89.7036C105.992 89.0633 106.287 88.6709 107.073 88.5219C107.81 88.4245 108.278 88.6709 108.474 89.2596C108.571 89.9972 108.302 90.3911 107.663 90.4413C106.877 90.4413 106.384 90.1949 106.188 89.7036ZM103.754 95.3099C103.558 94.4734 103.95 94.0057 104.934 93.9083C105.72 93.9083 106.114 94.2521 106.114 94.9411C105.967 95.6787 105.697 96.0726 105.303 96.1213C104.468 96.2187 103.952 95.9487 103.754 95.3099ZM105.524 102.465C104.443 102.417 103.976 102.023 104.123 101.285C104.123 100.45 104.566 100.056 105.45 100.105C106.139 100.252 106.483 100.645 106.483 101.285C106.335 102.219 106.015 102.613 105.524 102.465ZM108.548 106.965C108.843 106.13 109.384 105.833 110.17 106.08C110.809 106.276 111.055 106.695 110.908 107.334C110.613 108.12 110.097 108.465 109.359 108.367C108.672 108.12 108.4 107.652 108.548 106.965ZM114.523 111.17C113.834 111.17 113.564 110.801 113.712 110.063C113.76 109.326 114.154 109.03 114.892 109.177C115.678 109.275 115.998 109.644 115.85 110.283C115.701 110.875 115.26 111.17 114.523 111.17ZM162.09 104.309C161.205 104.162 160.763 103.694 160.763 102.908C160.959 102.121 161.475 101.776 162.311 101.877C163.097 101.925 163.417 102.417 163.27 103.352C163.269 104.088 162.876 104.407 162.09 104.309ZM155.968 97.5967C156.018 97.0065 156.41 96.6377 157.147 96.4902C157.934 96.4415 158.45 96.8339 158.696 97.6704C158.549 98.6058 158.058 99.072 157.221 99.072C156.386 98.9245 155.968 98.4317 155.968 97.5967ZM77.4264 7.97046C77.3778 7.08527 77.9176 6.52021 79.0489 6.27383L80.5976 6.05401C84.9236 6.84036 87.9222 8.68452 89.5948 11.5865L89.9635 12.544C90.111 12.8877 89.9886 13.1843 89.5948 13.4307C89.0535 13.8733 88.4635 13.7006 87.8248 12.9128C85.9561 10.0108 83.1286 8.70813 79.3439 9.00467C78.1152 9.15072 77.4766 8.8055 77.4264 7.97046ZM89.3735 7.2328C85.7348 3.93839 81.5076 2.46306 76.689 2.80681C73.1978 3.10188 70.3953 4.50344 68.2817 7.0115C66.2168 9.56824 65.4292 12.4953 65.9218 15.7897C65.9705 16.2323 66.2906 17.5114 66.8805 19.627C67.8142 22.7252 69.2154 24.9869 71.0841 26.4135C72.9028 27.7915 75.4839 28.5041 78.8276 28.5528C81.6787 28.6014 84.2112 27.79 86.4236 26.1185C88.6847 24.4956 90.4797 22.11 91.8072 18.9631C93.7748 14.338 92.9636 10.4298 89.3735 7.2328ZM94.1671 19.4043C91.5609 25.7969 87.3823 29.7802 81.63 31.3544C78.1388 32.3385 74.7715 32.0183 71.5266 30.3969C68.3304 28.6752 66.118 26.1421 64.8894 22.799C64.2994 21.275 63.8333 19.6019 63.4882 17.7843C63.4395 17.4406 63.3156 16.0626 63.1194 13.652C62.9232 9.52103 64.5206 6.25023 67.913 3.84249C71.4042 1.1869 75.0414 -0.0922056 78.8276 0.00516602C82.7112 0.00516602 86.375 1.38312 89.816 4.13756C95.1258 8.46175 96.5772 13.5516 94.1671 19.4043ZM72.7803 8.04423C73.5665 8.19324 73.8615 8.70813 73.6653 9.59332C73.6166 10.2336 73.2479 10.5036 72.5591 10.4062C71.5753 10.2572 71.183 9.74233 71.3791 8.85566C71.5266 8.16668 71.9942 7.8967 72.7803 8.04423ZM48.3699 49.5747C49.1561 49.4257 49.5985 49.5998 49.6974 50.0911C49.8935 50.6325 49.5749 51.1489 48.7387 51.6402C48.0012 51.6402 47.6074 51.3466 47.5587 50.755C47.4127 50.066 47.6826 49.6736 48.3699 49.5747ZM53.901 53.5581C53.9983 54.2456 53.6296 54.7133 52.7948 54.9582C52.0573 54.9582 51.6635 54.6646 51.6148 54.073C51.6148 53.4829 51.9098 53.089 52.4998 52.8927C53.2372 52.7954 53.7048 53.0167 53.901 53.5581ZM59.2845 57.9103C58.5957 58.0092 58.2521 57.6403 58.2521 56.8038C58.2521 56.1148 58.6459 55.7726 59.432 55.7726C60.022 55.7726 60.3657 56.1148 60.4645 56.8038C60.3185 57.394 59.9232 57.7628 59.2845 57.9103ZM64.0059 56.8776C63.9557 56.0898 64.3495 55.6472 65.1858 55.5498C66.2183 55.4023 66.7094 55.6973 66.6608 56.435C66.6121 57.0753 66.1445 57.5164 65.2596 57.7628C64.4719 57.7628 64.0545 57.4677 64.0059 56.8776ZM71.8216 53.1893C72.4603 53.3368 72.7803 53.7292 72.7803 54.3695C72.9278 55.2547 72.5104 55.6472 71.5266 55.5498C70.6918 55.4023 70.298 54.9095 70.3467 54.0745C70.5443 53.3368 71.0355 53.0417 71.8216 53.1893Z" fill="white"/>
<path d="M29.5745 41.0402C29.1618 42.6069 28.45 43.9664 27.5319 45.1187C25.4894 47.6822 23.9574 48.1949 19.3617 49.7331C14.766 51.2712 10.6809 49.7331 9.14894 49.7331C7.61702 49.7331 4.04255 45.1187 4.04255 45.1187C4.04255 45.1187 2 39.4788 2 37.428C2 35.3771 4.04255 30.7627 7.61702 27.1737C11.1915 23.5848 20.383 25.6356 20.383 25.6356C20.383 25.6356 28.5532 29.7373 29.5745 34.3517C30.1367 36.892 30.0799 39.1215 29.5745 41.0402ZM29.5745 41.0402L38.2553 46.1441" stroke="white" stroke-width="3"/>
</svg>
