<svg width="185" height="82" viewBox="0 0 185 82" fill="none" xmlns="http://www.w3.org/2000/svg">
<path fill-rule="evenodd" clip-rule="evenodd" d="M111.135 34.9264C112.095 34.7226 113.225 34.8918 114.527 35.436C115.828 35.9802 117.027 36.7608 118.125 37.7799C130.939 50.6881 144.337 59.1815 158.317 63.2579C160.921 64.006 164.655 65.5347 169.521 67.844C171.304 68.6593 172.297 69.5072 172.502 70.3918C172.845 71.2071 172.467 72.4973 171.371 74.2644C167.465 80.2426 162.393 82.7557 156.158 81.8039C150.264 80.852 144.267 78.985 138.169 76.1987C133.441 74.026 127.958 70.9686 121.722 67.0267C120.421 66.1441 118.741 64.4789 116.685 62.035C114.081 58.8411 110.826 57.9218 106.92 59.2813C96.7786 62.7464 86.0531 65.7364 74.7459 68.2496C52.1993 73.3452 31.0589 71.6473 11.3226 63.154C7.21086 61.3196 4.22986 59.6543 2.37959 58.1603C0.667057 56.7335 -0.122394 55.374 0.0153488 54.0838C0.494364 50.5516 1.24887 47.0173 2.2768 43.485C2.55023 42.6717 3.0313 42.1255 3.7159 41.8544C4.4704 41.6506 5.29274 41.8544 6.18293 42.4659C9.33457 44.5041 13.2407 46.3059 17.9013 47.8672C23.3144 49.4978 27.3932 50.7187 30.1337 51.536C35.8901 53.3011 41.3053 52.6571 46.375 49.5997C43.7702 48.9882 40.9948 47.9691 38.0488 46.5423C36.4041 45.7291 34.0049 44.4022 30.8533 42.5678C18.7915 36.0474 12.2477 24.8371 11.2198 8.9368C11.082 6.89856 11.9393 5.36988 13.7896 4.35076C18.1069 2.24526 21.2935 0.920398 23.3494 0.378226C25.6108 -0.302546 27.5289 -0.064071 29.1058 1.09161C30.8183 2.24526 31.7435 3.94514 31.8812 6.18721C32.977 16.3784 37.8082 23.8526 46.375 28.6079C52.6125 32.1401 57.8529 34.6207 62.1024 36.0474C66.4875 37.6108 71.3887 38.424 76.8018 38.4913C80.5701 38.4913 85.4713 38.1529 91.5012 37.4722C95.8185 36.9973 99.0729 36.6589 101.267 36.453C105.175 35.9781 108.464 35.4686 111.135 34.9264ZM93.9703 39.9201C86.5692 40.5988 82.7658 40.9392 82.5602 40.9392C78.1751 41.2796 74.3018 41.2449 70.9446 40.8373C66.6951 40.2931 62.2072 39.1048 57.4787 37.2704C54.4628 36.0474 50.2832 34.0438 44.938 31.2576C44.0457 30.7827 42.6765 30.0346 40.8262 29.0155C39.3193 28.1309 38.1187 27.1464 37.2285 26.0601C34.6237 22.6623 32.8433 19.98 31.8832 18.009C30.1008 14.8171 29.1078 11.7251 28.9023 8.73501C28.6967 5.88147 27.9771 4.21623 26.7436 3.74132C25.7157 3.26641 24.0031 3.47024 21.6039 4.3528C18.3146 5.57778 16.3615 6.73142 15.7447 7.81781C15.128 8.97145 15.128 11.2156 15.7447 14.544C18.074 26.8407 23.9003 35.4013 33.2196 40.2279C36.5089 42.0602 39.0109 43.3871 40.7235 44.2024C43.6017 45.6272 46.2743 46.4771 48.7413 46.7502C50.6594 47.1558 52.1335 48.4134 53.1614 50.521C52.1335 50.9286 50.865 51.3709 49.3581 51.8458C43.4639 55.4474 37.1257 56.3952 30.3414 54.6973L23.557 53.0667C21.7746 52.4553 19.1719 51.5727 15.7447 50.417C12.7288 49.3306 10.2289 48.1403 8.24085 46.8501C6.39057 45.7637 5.01931 46.3406 4.12913 48.5826C3.30678 50.894 3.20399 52.7264 3.82075 54.0859C4.36966 55.5126 5.87661 56.9048 8.34364 58.2643C19.7886 64.4462 32.9461 67.844 47.8162 68.4555C56.0396 68.7958 67.2441 67.3018 81.4295 63.9713C91.4354 61.5947 100.378 58.9797 108.258 56.1241C111.616 54.9705 114.769 55.6818 117.715 58.2643L120.388 61.1178C123.198 63.9693 126.829 66.6883 131.284 69.2708C133.408 70.4937 137.487 72.5319 143.517 75.3855C147.493 77.3565 152.425 78.4775 158.319 78.7465C161.54 78.8831 164.486 77.3544 167.159 74.1605C168.53 72.6685 168.257 71.3416 166.337 70.188C163.185 68.3535 159.69 66.8249 155.852 65.6019C143.038 61.7965 130.256 53.9167 117.51 41.9563C114.358 39.2393 110.828 38.049 106.922 38.3894C104.044 38.5952 99.7267 39.1048 93.9703 39.9201ZM124.603 19.232C127.822 15.5611 131.593 13.5228 135.91 13.1172C141.255 12.7096 145.64 14.9496 149.067 19.8434C152.562 24.8718 153.179 29.7289 150.918 34.4148C150.369 35.5012 149.444 36.5203 148.142 37.4722C147.869 37.6087 146.67 38.3221 144.544 39.6144C139.954 42.2641 135.601 43.2485 131.49 42.5678C127.035 41.9563 123.61 39.5451 121.21 35.332C120.25 33.5669 119.804 31.9343 119.874 30.4423C120.01 26.5696 121.587 22.8335 124.603 19.232ZM124.397 33.8054C125.698 36.1167 127.549 37.7799 129.948 38.7991C132.347 39.9527 134.779 40.2258 137.246 39.6144C145.196 37.6434 148.827 33.7035 148.142 27.7905C148.142 23.9199 146.771 20.8625 144.03 18.6184C141.358 16.3091 138.206 15.5957 134.574 16.4783C129.57 17.7033 125.871 21.5392 123.472 27.9943C122.855 29.7615 123.163 31.6999 124.397 33.8054ZM131.593 21.5759C131.593 21.3721 131.73 21.1336 132.004 20.8625C132.277 20.6567 132.483 20.5222 132.62 20.4549C133.922 20.1818 134.744 20.7606 135.087 22.1874C135.155 22.7316 134.709 23.2412 133.751 23.7161C132.312 23.3084 131.593 22.5951 131.593 21.5759ZM140.945 25.1429C139.368 24.5314 138.307 23.9892 137.758 23.5123C137.485 23.1719 137.45 22.7989 137.655 22.3912C137.861 21.847 138.204 21.474 138.683 21.2702C139.641 20.9971 140.98 21.4394 142.692 22.593C144.475 23.6121 145.365 24.5966 145.365 25.5485C145.5 26.4331 144.954 26.908 143.72 26.9752C143.311 26.2965 142.386 25.685 140.945 25.1429ZM166.542 38.1876C162.293 38.9336 159.244 41.9237 157.394 47.1538C156.16 50.6861 157.326 54.0512 160.889 57.2431C164.178 60.2332 168.598 60.5063 174.149 58.0584C179.632 55.6798 181.893 52.0782 180.933 47.2557C180.316 44.4022 178.98 42.1601 176.924 40.5275C174.663 38.7624 172.025 37.8778 169.009 37.8778C168.185 37.8819 167.365 37.9838 166.542 38.1876ZM170.551 34.7226C173.497 34.1784 176.102 34.959 178.363 37.0666C179.459 38.0857 181.242 40.4276 183.709 44.0965C184.872 45.9309 185.25 48.0038 184.839 50.3151C184.428 52.4206 183.435 54.3916 181.858 56.224C176.649 61.7945 170.311 63.7655 162.842 62.1349C158.524 61.1158 155.646 58.6699 154.207 54.7952C152.7 51.0591 153.041 47.1171 155.235 42.9734C156.674 40.2564 158.695 38.1835 161.3 36.7567C164.04 35.334 167.124 34.6553 170.551 34.7226ZM22.8375 14.7478C24.2087 14.6113 24.8933 15.5285 24.8933 17.4994C24.8933 18.1782 24.4822 18.5532 23.6598 18.6205C22.2885 18.8936 21.4662 18.384 21.1928 17.0918C21.0571 16.4803 21.1578 15.9708 21.5012 15.5631C21.7746 15.0862 22.2186 14.8151 22.8375 14.7478ZM25.6129 26.162C25.8185 25.3487 26.2625 24.9064 26.9492 24.8391C27.8394 24.9064 28.526 24.9411 29.005 24.9411C29.6218 24.9411 29.8623 25.3487 29.7246 26.164C29.1757 27.3177 28.1827 27.8272 26.7436 27.6927C25.7835 27.5541 25.4073 27.0445 25.6129 26.162ZM89.6529 45.9329C93.5591 45.7984 95.9912 45.6598 96.9512 45.5253C99.7616 45.2542 102.194 44.6753 104.25 43.7927C105.14 43.5869 105.997 43.5196 106.819 43.5869C107.504 43.5869 107.95 43.8254 108.156 44.3023C108.567 45.1156 108.291 45.6598 107.333 45.9329C104.661 46.952 102.743 47.5288 101.577 47.6654C98.9722 48.0731 94.9303 48.4807 89.4474 48.8904L87.4943 48.6845C86.6041 48.55 86.158 48.1077 86.158 47.3617C86.158 46.6137 86.6041 46.1367 87.4943 45.9349H89.6529V45.9329ZM73.9256 48.4807C72.9655 48.2769 72.4516 47.9039 72.3837 47.3597C72.3837 46.6116 72.8278 46.1021 73.72 45.831C74.0634 45.6944 74.6102 45.6251 75.3647 45.6251C76.8038 45.6251 77.8667 45.5905 78.5513 45.5232C79.7848 45.5232 80.4365 45.9309 80.5044 46.7482C80.5722 47.8346 79.9554 48.3441 78.6541 48.2769C77.0772 48.2076 76.0843 48.3115 75.6731 48.5806C74.713 48.5826 74.1291 48.548 73.9256 48.4807ZM33.5259 63.3599C32.6357 63.0888 32.3273 62.5466 32.6007 61.7293C32.8063 60.7101 33.4231 60.2006 34.451 60.2006C35.3412 60.2678 35.8552 60.8793 35.9929 62.035C35.4461 63.2579 34.6237 63.7002 33.5259 63.3599ZM44.5268 62.4426C44.5268 63.4618 43.8771 63.9713 42.5737 63.9713C41.5458 63.9713 40.9619 63.4271 40.8262 62.3407C41.0997 61.3889 41.7514 60.914 42.7793 60.914C44.0128 61.0505 44.5946 61.5601 44.5268 62.4426ZM9.98833 54.7992C10.2618 53.8474 11.1191 53.509 12.5582 53.7801C13.6539 54.0533 14.0651 54.6973 13.7917 55.7165C13.3127 57.0087 12.5232 57.5509 11.4274 57.347C9.98833 56.7356 9.50726 55.8856 9.98833 54.7992ZM25.6129 58.4681C25.8863 58.6026 26.024 58.8737 26.024 59.2813C26.0919 60.5063 25.4751 61.2177 24.1738 61.4215C23.2137 61.287 22.6997 60.9119 22.6319 60.3005C22.564 59.2141 23.2137 58.5353 24.5849 58.2622C24.9262 58.197 25.2695 58.2643 25.6129 58.4681ZM176.719 48.5826C176.17 48.5154 175.212 47.5981 173.84 45.831C172.469 44.2004 171.785 43.1466 171.785 42.6717C171.785 41.6526 172.093 41.0391 172.71 40.8373C173.053 40.77 173.532 40.9046 174.149 41.2449C174.56 41.4488 174.936 41.7892 175.28 42.2641C176.445 43.9619 177.062 44.9138 177.13 45.1156C177.679 46.202 177.814 47.2904 177.541 48.3788C177.266 48.6499 176.992 48.7171 176.719 48.5826ZM152.562 71.5128C152.562 70.4937 153.144 69.9841 154.31 69.9841C155.749 69.9841 156.401 70.6303 156.263 71.9205C156.263 72.5992 155.714 73.0415 154.618 73.2453C153.247 73.1781 152.562 72.5992 152.562 71.5128ZM146.498 70.9013C145.058 71.0359 144.304 70.5263 144.236 69.3727C144.1 68.5574 144.407 68.0478 145.161 67.844C146.738 67.6402 147.766 68.1151 148.245 69.2708C148.381 69.6784 148.28 70.0168 147.937 70.2899C147.525 70.6303 147.044 70.8341 146.498 70.9013Z" fill="white"/>
</svg>
